<?xml version="1.0" standalone="no"?><!DOCTYPE svg PUBLIC "-//W3C//DTD SVG 1.1//EN" "http://www.w3.org/Graphics/SVG/1.1/DTD/svg11.dtd"><svg class="icon" width="200px" height="200.00px" viewBox="0 0 1024 1024" version="1.1" xmlns="http://www.w3.org/2000/svg"><path d="M682.688 746.688c11.776 0 21.312 9.536 21.312 21.312v85.312c0 11.776-9.6 21.376-21.312 21.376H597.312A21.312 21.312 0 0 1 576 853.312V768c0-11.776 9.6-21.312 21.312-21.312h85.376z m-256 0c11.776 0 21.312 9.536 21.312 21.312v85.312c0 11.776-9.6 21.376-21.312 21.376H341.312A21.312 21.312 0 0 1 320 853.312V768c0-11.776 9.6-21.312 21.312-21.312h85.376zM597.312 448h85.376c11.776 0 21.312 9.6 21.312 21.312v85.376c0 11.776-9.6 21.312-21.312 21.312H597.312A21.312 21.312 0 0 1 576 554.688V469.312C576 457.6 585.6 448 597.312 448z m-256 0h85.376C438.4 448 448 457.6 448 469.312v85.376C448 566.4 438.4 576 426.688 576H341.312A21.312 21.312 0 0 1 320 554.688V469.312C320 457.6 329.6 448 341.312 448z m341.376-298.688c11.776 0 21.312 9.6 21.312 21.376V256c0 11.776-9.6 21.312-21.312 21.312H597.312A21.312 21.312 0 0 1 576 256V170.688c0-11.776 9.6-21.376 21.312-21.376h85.376z m-256 0c11.776 0 21.312 9.6 21.312 21.376V256c0 11.776-9.6 21.312-21.312 21.312H341.312A21.312 21.312 0 0 1 320 256V170.688c0-11.776 9.6-21.376 21.312-21.376h85.376z" fill="#4E5969" /></svg>